<svg width="649" height="147" viewBox="0 0 649 147" fill="none" xmlns="http://www.w3.org/2000/svg">
<g filter="url(#filter0_d_1_188)">
<path d="M11 131.538L70.495 69.8553C77.7606 62.3225 89.7497 62.0836 97.3096 69.3211L118.3 89.4163C126.458 97.2268 139.588 96.2382 146.485 87.2941L185.235 37.0419C192.478 27.6501 206.459 27.1153 214.398 35.9266L271.374 99.1676C277.835 106.339 289.05 106.443 295.642 99.3926C300.393 94.3125 307.822 92.7637 314.207 95.5223L340.463 106.867C348.194 110.208 357.201 108.061 362.593 101.592L384.871 74.8698C392.773 65.3919 407.472 65.843 414.777 75.7875L446.146 118.487C453.88 129.015 469.686 128.778 477.101 118.023L494.078 93.3958C500.02 84.7779 511.812 82.5885 520.451 88.4994L527.707 93.4645C536.278 99.3291 547.97 97.2253 553.959 88.7407L593.262 33.0596C598.895 25.0799 609.66 22.6708 618.156 27.4887L639 39.3077" stroke="#6418C3" stroke-width="8"/>
</g>
<g filter="url(#filter1_d_1_188)">
<path d="M263.757 18C263.757 10.268 270.025 4 277.757 4H370.757C378.489 4 384.757 10.268 384.757 18V51C384.757 58.732 378.489 65 370.757 65H277.757C270.025 65 263.757 58.732 263.757 51V18Z" fill="white"/>
<path d="M266.243 42.1213C267.414 40.9497 269.314 40.9497 270.485 42.1213L276.849 48.4853C278.021 49.6569 278.021 51.5564 276.849 52.7279L270.485 59.0919C269.314 60.2635 267.414 60.2635 266.243 59.0919L259.879 52.7279C258.707 51.5563 258.707 49.6569 259.879 48.4853L266.243 42.1213Z" fill="white"/>
</g>
<circle cx="232.5" cy="55.5" r="12.5" fill="#6418C3" stroke="white" stroke-width="6"/>
<path d="M287.877 29.256H283.397V27.576L286.005 20.44H288.437L285.605 27.336H287.877V24.376H290.085V27.336H291.093V29.256H290.085V31H287.877V29.256ZM296.255 31.192C295.796 31.192 295.252 31.144 294.623 31.048C294.004 30.9627 293.492 30.8613 293.087 30.744L292.511 30.6L292.751 28.968C294.009 29.1707 295.087 29.272 295.983 29.272C296.505 29.272 296.905 29.1333 297.183 28.856C297.46 28.5787 297.599 28.1787 297.599 27.656C297.599 26.6747 297.151 26.184 296.255 26.184C295.519 26.184 294.889 26.2533 294.367 26.392L294.127 26.456L292.815 26.152L293.103 20.44H299.551V22.36H294.831L294.559 24.648C295.22 24.392 295.849 24.264 296.447 24.264C298.729 24.264 299.871 25.3253 299.871 27.448C299.871 28.6427 299.556 29.5653 298.927 30.216C298.297 30.8667 297.407 31.192 296.255 31.192ZM305.16 31.192C303.869 31.192 302.888 30.7227 302.216 29.784C301.554 28.8347 301.224 27.4427 301.224 25.608C301.224 23.8053 301.597 22.4613 302.344 21.576C303.09 20.6907 304.184 20.248 305.624 20.248C306.477 20.248 307.368 20.3653 308.296 20.6L308.792 20.712L308.6 22.408C307.512 22.248 306.568 22.168 305.768 22.168C304.253 22.168 303.496 22.9893 303.496 24.632L303.832 24.536C304.514 24.3333 305.074 24.232 305.512 24.232C306.728 24.232 307.634 24.5093 308.232 25.064C308.84 25.6187 309.144 26.4773 309.144 27.64C309.144 28.8027 308.802 29.688 308.12 30.296C307.448 30.8933 306.461 31.192 305.16 31.192ZM305.272 29.272C305.784 29.272 306.178 29.1333 306.456 28.856C306.733 28.568 306.872 28.168 306.872 27.656C306.872 26.6533 306.354 26.152 305.32 26.152C304.84 26.152 304.317 26.2427 303.752 26.424L303.48 26.504C303.48 28.3493 304.077 29.272 305.272 29.272Z" fill="#202020"/>
<path d="M317.605 21.336V24.76H321.925V26.088H317.605V29.656H322.885V31H316.069V19.992H322.885V21.336H317.605ZM324.705 23H326.177V23.528C326.583 23.2933 326.967 23.1173 327.329 23C327.692 22.8827 328.065 22.824 328.449 22.824C328.865 22.824 329.249 22.8933 329.601 23.032C329.953 23.16 330.231 23.3573 330.433 23.624C330.86 23.3893 331.324 23.1973 331.825 23.048C332.337 22.8987 332.855 22.824 333.377 22.824C334.039 22.824 334.556 22.9573 334.929 23.224C335.303 23.4907 335.569 23.9067 335.729 24.472C335.889 25.0373 335.969 25.7947 335.969 26.744V31H334.481V26.776C334.481 26.104 334.439 25.5867 334.353 25.224C334.279 24.8507 334.135 24.584 333.921 24.424C333.719 24.2533 333.415 24.168 333.009 24.168C332.711 24.168 332.401 24.2053 332.081 24.28C331.761 24.344 331.479 24.4293 331.233 24.536L330.945 24.664C331.063 25.1227 331.121 25.848 331.121 26.84V31H329.617V26.872C329.617 26.1573 329.58 25.6133 329.505 25.24C329.431 24.856 329.287 24.584 329.073 24.424C328.871 24.2533 328.567 24.168 328.161 24.168C327.863 24.168 327.553 24.2053 327.233 24.28C326.924 24.3547 326.663 24.44 326.449 24.536L326.193 24.664V31H324.705V23ZM339.904 31.176C339.146 31.176 338.57 30.9627 338.176 30.536C337.781 30.1093 337.584 29.496 337.584 28.696C337.584 27.9067 337.786 27.3307 338.192 26.968C338.597 26.5947 339.242 26.3653 340.128 26.28L342.4 26.072V25.448C342.4 24.9787 342.298 24.6427 342.096 24.44C341.893 24.2267 341.594 24.12 341.2 24.12C340.304 24.12 339.269 24.184 338.096 24.312L338.048 23.224C339.178 22.9573 340.229 22.824 341.2 22.824C342.138 22.824 342.821 23.0373 343.248 23.464C343.674 23.88 343.888 24.5413 343.888 25.448V29.304C343.909 29.5173 343.978 29.6827 344.096 29.8C344.224 29.9067 344.421 29.9813 344.688 30.024L344.64 31.176C344.181 31.176 343.792 31.1227 343.472 31.016C343.152 30.92 342.869 30.7653 342.624 30.552C341.717 30.968 340.81 31.176 339.904 31.176ZM340.176 29.928C340.826 29.928 341.456 29.8267 342.064 29.624L342.4 29.512V27.16L340.32 27.352C339.904 27.3947 339.594 27.5227 339.392 27.736C339.2 27.9387 339.104 28.2427 339.104 28.648C339.104 29.5013 339.461 29.928 340.176 29.928ZM346.158 23H347.646V31H346.158V23ZM346.158 19.816H347.63V21.432H346.158V19.816ZM349.942 19.608H351.43V31H349.942V19.608ZM356.328 31.176C355.71 31.176 354.904 31.0907 353.912 30.92L353.432 30.84L353.496 29.56C354.787 29.7413 355.71 29.832 356.264 29.832C356.83 29.832 357.256 29.7467 357.544 29.576C357.832 29.4053 357.976 29.128 357.976 28.744C357.976 28.4667 357.902 28.2587 357.752 28.12C357.614 27.9707 357.432 27.864 357.208 27.8C356.984 27.7253 356.664 27.656 356.248 27.592L355.864 27.528C355.256 27.432 354.771 27.3093 354.408 27.16C354.056 27.0107 353.784 26.792 353.592 26.504C353.4 26.216 353.304 25.8213 353.304 25.32C353.304 23.6667 354.318 22.84 356.344 22.84C356.984 22.84 357.784 22.92 358.744 23.08L359.208 23.176L359.176 24.424C357.982 24.2533 357.064 24.168 356.424 24.168C355.336 24.168 354.792 24.4987 354.792 25.16C354.792 25.4053 354.862 25.5973 355 25.736C355.139 25.864 355.315 25.96 355.528 26.024C355.752 26.088 356.067 26.1573 356.472 26.232C356.547 26.2427 356.696 26.2693 356.92 26.312C357.55 26.4293 358.04 26.568 358.392 26.728C358.755 26.8773 359.022 27.1013 359.192 27.4C359.374 27.6987 359.464 28.104 359.464 28.616C359.464 29.5013 359.208 30.152 358.696 30.568C358.184 30.9733 357.395 31.176 356.328 31.176Z" fill="#202020"/>
<path d="M289.371 48.7051C289.371 50.0762 289.023 51.1543 288.328 51.9395C287.636 52.7246 286.673 53.1172 285.439 53.1172C284.177 53.1172 283.203 52.7324 282.515 51.9629C281.832 51.1895 281.49 50.0996 281.49 48.6934C281.49 47.2988 281.834 46.2188 282.521 45.4531C283.209 44.6836 284.185 44.2988 285.451 44.2988C286.681 44.2988 287.642 44.6895 288.334 45.4707C289.025 46.252 289.371 47.3301 289.371 48.7051ZM282.545 48.7051C282.545 49.8652 282.791 50.7461 283.283 51.3477C283.779 51.9453 284.498 52.2441 285.439 52.2441C286.388 52.2441 287.105 51.9453 287.589 51.3477C288.074 50.75 288.316 49.8691 288.316 48.7051C288.316 47.5527 288.074 46.6797 287.589 46.0859C287.109 45.4883 286.396 45.1895 285.451 45.1895C284.502 45.1895 283.779 45.4902 283.283 46.0918C282.791 46.6895 282.545 47.5605 282.545 48.7051ZM293.707 53.1172C292.777 53.1172 292.056 52.832 291.545 52.2617C291.037 51.6875 290.783 50.877 290.783 49.8301C290.783 48.7559 291.041 47.9258 291.556 47.3398C292.076 46.7539 292.814 46.4609 293.771 46.4609C294.08 46.4609 294.388 46.4941 294.697 46.5605C295.005 46.627 295.248 46.7051 295.423 46.7949L295.125 47.6211C294.91 47.5352 294.675 47.4648 294.422 47.4102C294.168 47.3516 293.943 47.3223 293.748 47.3223C292.443 47.3223 291.791 48.1543 291.791 49.8184C291.791 50.6074 291.949 51.2129 292.265 51.6348C292.586 52.0566 293.058 52.2676 293.683 52.2676C294.218 52.2676 294.767 52.1523 295.33 51.9219V52.7832C294.9 53.0059 294.359 53.1172 293.707 53.1172ZM298.933 52.3145C299.105 52.3145 299.271 52.3027 299.431 52.2793C299.591 52.252 299.718 52.2246 299.812 52.1973V52.9414C299.707 52.9922 299.55 53.0332 299.343 53.0645C299.14 53.0996 298.957 53.1172 298.793 53.1172C297.55 53.1172 296.929 52.4629 296.929 51.1543V47.334H296.009V46.8652L296.929 46.4609L297.339 45.0898H297.902V46.5781H299.765V47.334H297.902V51.1133C297.902 51.5 297.994 51.7969 298.177 52.0039C298.361 52.2109 298.613 52.3145 298.933 52.3145ZM307.377 53H306.427V46.8945C306.427 46.3867 306.443 45.9062 306.474 45.4531C306.392 45.5352 306.3 45.6211 306.199 45.7109C306.097 45.8008 305.632 46.1816 304.804 46.8535L304.289 46.1855L306.556 44.4336H307.377V53ZM313.476 44.3105C314.257 44.3105 314.877 44.4922 315.334 44.8555C315.791 45.2188 316.019 45.7207 316.019 46.3613C316.019 46.7832 315.888 47.168 315.627 47.5156C315.365 47.8633 314.947 48.1797 314.373 48.4648C315.068 48.7969 315.562 49.1465 315.855 49.5137C316.148 49.877 316.295 50.2988 316.295 50.7793C316.295 51.4902 316.047 52.0586 315.55 52.4844C315.054 52.9062 314.375 53.1172 313.511 53.1172C312.597 53.1172 311.894 52.918 311.402 52.5195C310.91 52.1172 310.664 51.5488 310.664 50.8145C310.664 49.834 311.261 49.0703 312.457 48.5234C311.918 48.2188 311.531 47.8906 311.297 47.5391C311.062 47.1836 310.945 46.7871 310.945 46.3496C310.945 45.7285 311.173 45.2344 311.63 44.8672C312.091 44.4961 312.707 44.3105 313.476 44.3105ZM311.625 50.8379C311.625 51.3066 311.787 51.6719 312.111 51.9336C312.439 52.1953 312.898 52.3262 313.488 52.3262C314.07 52.3262 314.523 52.1895 314.847 51.916C315.172 51.6426 315.334 51.2676 315.334 50.791C315.334 50.4121 315.181 50.0762 314.877 49.7832C314.572 49.4863 314.041 49.1992 313.283 48.9219C312.701 49.1719 312.279 49.4492 312.017 49.7539C311.755 50.0547 311.625 50.416 311.625 50.8379ZM313.464 45.1016C312.976 45.1016 312.593 45.2188 312.316 45.4531C312.039 45.6875 311.9 46 311.9 46.3906C311.9 46.75 312.015 47.0586 312.246 47.3164C312.476 47.5742 312.902 47.832 313.523 48.0898C314.082 47.8555 314.476 47.6035 314.707 47.334C314.941 47.0645 315.058 46.75 315.058 46.3906C315.058 45.9961 314.916 45.6836 314.63 45.4531C314.349 45.2188 313.961 45.1016 313.464 45.1016ZM320.027 52.3145C320.199 52.3145 320.365 52.3027 320.525 52.2793C320.685 52.252 320.812 52.2246 320.906 52.1973V52.9414C320.8 52.9922 320.644 53.0332 320.437 53.0645C320.234 53.0996 320.05 53.1172 319.886 53.1172C318.644 53.1172 318.023 52.4629 318.023 51.1543V47.334H317.103V46.8652L318.023 46.4609L318.433 45.0898H318.996V46.5781H320.859V47.334H318.996V51.1133C318.996 51.5 319.088 51.7969 319.271 52.0039C319.455 52.2109 319.707 52.3145 320.027 52.3145ZM326.589 53V48.8457C326.589 48.3223 326.47 47.9316 326.232 47.6738C325.994 47.416 325.621 47.2871 325.113 47.2871C324.437 47.2871 323.943 47.4707 323.63 47.8379C323.322 48.2051 323.168 48.8066 323.168 49.6426V53H322.195V43.8828H323.168V46.6426C323.168 46.9746 323.152 47.25 323.121 47.4688H323.179C323.371 47.1602 323.642 46.918 323.994 46.7422C324.349 46.5625 324.754 46.4727 325.207 46.4727C325.992 46.4727 326.58 46.6602 326.97 47.0352C327.365 47.4062 327.562 47.998 327.562 48.8105V53H326.589ZM330.586 51.6055L330.673 51.7402C330.572 52.1309 330.425 52.584 330.234 53.0996C330.043 53.6191 329.843 54.1016 329.636 54.5469H328.904C329.009 54.1406 329.125 53.6387 329.25 53.041C329.379 52.4434 329.468 51.9648 329.519 51.6055H330.586ZM340.81 53H335.179V52.1621L337.435 49.8945C338.123 49.1992 338.576 48.7031 338.795 48.4062C339.013 48.1094 339.177 47.8203 339.287 47.5391C339.396 47.2578 339.451 46.9551 339.451 46.6309C339.451 46.1738 339.312 45.8125 339.035 45.5469C338.757 45.2773 338.373 45.1426 337.88 45.1426C337.525 45.1426 337.187 45.2012 336.867 45.3184C336.55 45.4355 336.197 45.6484 335.806 45.957L335.291 45.2949C336.08 44.6387 336.939 44.3105 337.869 44.3105C338.673 44.3105 339.304 44.5176 339.761 44.9316C340.218 45.3418 340.447 45.8945 340.447 46.5898C340.447 47.1328 340.295 47.6699 339.99 48.2012C339.685 48.7324 339.115 49.4043 338.279 50.2168L336.404 52.0508V52.0977H340.81V53ZM347.724 48.7051C347.724 50.1855 347.49 51.291 347.021 52.0215C346.556 52.752 345.843 53.1172 344.882 53.1172C343.961 53.1172 343.259 52.7441 342.779 51.998C342.298 51.248 342.058 50.1504 342.058 48.7051C342.058 47.2129 342.291 46.1055 342.755 45.3828C343.22 44.6602 343.929 44.2988 344.882 44.2988C345.812 44.2988 346.517 44.6758 346.998 45.4297C347.482 46.1836 347.724 47.2754 347.724 48.7051ZM343.043 48.7051C343.043 49.9512 343.189 50.8594 343.482 51.4297C343.775 51.9961 344.242 52.2793 344.882 52.2793C345.531 52.2793 346 51.9922 346.289 51.418C346.582 50.8398 346.728 49.9355 346.728 48.7051C346.728 47.4746 346.582 46.5742 346.289 46.0039C346 45.4297 345.531 45.1426 344.882 45.1426C344.242 45.1426 343.775 45.4258 343.482 45.9922C343.189 46.5547 343.043 47.459 343.043 48.7051ZM354.545 53H348.914V52.1621L351.17 49.8945C351.857 49.1992 352.31 48.7031 352.529 48.4062C352.748 48.1094 352.912 47.8203 353.021 47.5391C353.13 47.2578 353.185 46.9551 353.185 46.6309C353.185 46.1738 353.047 45.8125 352.769 45.5469C352.492 45.2773 352.107 45.1426 351.615 45.1426C351.259 45.1426 350.922 45.2012 350.601 45.3184C350.285 45.4355 349.931 45.6484 349.541 45.957L349.025 45.2949C349.814 44.6387 350.673 44.3105 351.603 44.3105C352.408 44.3105 353.039 44.5176 353.496 44.9316C353.953 45.3418 354.181 45.8945 354.181 46.5898C354.181 47.1328 354.029 47.6699 353.724 48.2012C353.42 48.7324 352.849 49.4043 352.013 50.2168L350.138 52.0508V52.0977H354.545V53ZM361.459 48.7051C361.459 50.1855 361.224 51.291 360.755 52.0215C360.291 52.752 359.578 53.1172 358.617 53.1172C357.695 53.1172 356.994 52.7441 356.513 51.998C356.033 51.248 355.793 50.1504 355.793 48.7051C355.793 47.2129 356.025 46.1055 356.49 45.3828C356.955 44.6602 357.664 44.2988 358.617 44.2988C359.547 44.2988 360.252 44.6758 360.732 45.4297C361.216 46.1836 361.459 47.2754 361.459 48.7051ZM356.777 48.7051C356.777 49.9512 356.923 50.8594 357.216 51.4297C357.509 51.9961 357.976 52.2793 358.617 52.2793C359.265 52.2793 359.734 51.9922 360.023 51.418C360.316 50.8398 360.463 49.9355 360.463 48.7051C360.463 47.4746 360.316 46.5742 360.023 46.0039C359.734 45.4297 359.265 45.1426 358.617 45.1426C357.976 45.1426 357.509 45.4258 357.216 45.9922C356.923 46.5547 356.777 47.459 356.777 48.7051Z" fill="#A5A5A5"/>
<defs>
<filter id="filter0_d_1_188" x="0.120972" y="17.0143" width="648.852" height="129.301" filterUnits="userSpaceOnUse" color-interpolation-filters="sRGB">
<feFlood flood-opacity="0" result="BackgroundImageFix"/>
<feColorMatrix in="SourceAlpha" type="matrix" values="0 0 0 0 0 0 0 0 0 0 0 0 0 0 0 0 0 0 127 0" result="hardAlpha"/>
<feOffset dy="4"/>
<feGaussianBlur stdDeviation="4"/>
<feColorMatrix type="matrix" values="0 0 0 0 0 0 0 0 0 0 0 0 0 0 0 0 0 0 0.12 0"/>
<feBlend mode="normal" in2="BackgroundImageFix" result="effect1_dropShadow_1_188"/>
<feBlend mode="normal" in="SourceGraphic" in2="effect1_dropShadow_1_188" result="shape"/>
</filter>
<filter id="filter1_d_1_188" x="251" y="0" width="141.757" height="77" filterUnits="userSpaceOnUse" color-interpolation-filters="sRGB">
<feFlood flood-opacity="0" result="BackgroundImageFix"/>
<feColorMatrix in="SourceAlpha" type="matrix" values="0 0 0 0 0 0 0 0 0 0 0 0 0 0 0 0 0 0 127 0" result="hardAlpha"/>
<feOffset dy="4"/>
<feGaussianBlur stdDeviation="4"/>
<feColorMatrix type="matrix" values="0 0 0 0 0 0 0 0 0 0 0 0 0 0 0 0 0 0 0.12 0"/>
<feBlend mode="normal" in2="BackgroundImageFix" result="effect1_dropShadow_1_188"/>
<feBlend mode="normal" in="SourceGraphic" in2="effect1_dropShadow_1_188" result="shape"/>
</filter>
</defs>
</svg>
